<svg xmlns="http://www.w3.org/2000/svg" xmlns:xlink="http://www.w3.org/1999/xlink" id="processonSvg1000" viewBox="2.0 7.0 1099.0 503.0" width="1099.0" height="503.0"><defs id="ProcessOnDefs1001"><marker id="ProcessOnMarker1051" markerUnits="userSpaceOnUse" orient="auto" markerWidth="16.23606797749979" markerHeight="10.550836550532098" viewBox="-1.0 -1.3763819204711736 16.23606797749979 10.550836550532098" refX="-1.0" refY="3.8990363547948754"><path id="ProcessOnPath1052" d="M12.0 3.8990363547948754L0.0 7.798072709589751V0.0Z" stroke="#323232" stroke-width="2.0" fill="#323232" transform="matrix(1.0,0.0,0.0,1.0,0.0,0.0)"/></marker><marker id="ProcessOnMarker1058" markerUnits="userSpaceOnUse" orient="auto" markerWidth="16.23606797749979" markerHeight="10.550836550532098" viewBox="-1.0 -1.3763819204711736 16.23606797749979 10.550836550532098" refX="-1.0" refY="3.8990363547948754"><path id="ProcessOnPath1059" d="M12.0 3.8990363547948754L0.0 7.798072709589751V0.0Z" stroke="#323232" stroke-width="2.0" fill="#323232" transform="matrix(1.0,0.0,0.0,1.0,0.0,0.0)"/></marker><marker id="ProcessOnMarker1065" markerUnits="userSpaceOnUse" orient="auto" markerWidth="16.23606797749979" markerHeight="10.550836550532098" viewBox="-1.0 -1.3763819204711736 16.23606797749979 10.550836550532098" refX="-1.0" refY="3.8990363547948754"><path id="ProcessOnPath1066" d="M12.0 3.8990363547948754L0.0 7.798072709589751V0.0Z" stroke="#323232" stroke-width="2.0" fill="#323232" transform="matrix(1.0,0.0,0.0,1.0,0.0,0.0)"/></marker><marker id="ProcessOnMarker1072" markerUnits="userSpaceOnUse" orient="auto" markerWidth="16.23606797749979" markerHeight="10.550836550532098" viewBox="-1.0 -1.3763819204711736 16.23606797749979 10.550836550532098" refX="-1.0" refY="3.8990363547948754"><path id="ProcessOnPath1073" d="M12.0 3.8990363547948754L0.0 7.798072709589751V0.0Z" stroke="#323232" stroke-width="2.0" fill="#323232" transform="matrix(1.0,0.0,0.0,1.0,0.0,0.0)"/></marker><marker id="ProcessOnMarker1079" markerUnits="userSpaceOnUse" orient="auto" markerWidth="16.23606797749979" markerHeight="10.550836550532098" viewBox="-1.0 -1.3763819204711736 16.23606797749979 10.550836550532098" refX="-1.0" refY="3.8990363547948754"><path id="ProcessOnPath1080" d="M12.0 3.8990363547948754L0.0 7.798072709589751V0.0Z" stroke="#323232" stroke-width="2.0" fill="#323232" transform="matrix(1.0,0.0,0.0,1.0,0.0,0.0)"/></marker><marker id="ProcessOnMarker1086" markerUnits="userSpaceOnUse" orient="auto" markerWidth="16.23606797749979" markerHeight="10.550836550532098" viewBox="-1.0 -1.3763819204711736 16.23606797749979 10.550836550532098" refX="-1.0" refY="3.8990363547948754"><path id="ProcessOnPath1087" d="M12.0 3.8990363547948754L0.0 7.798072709589751V0.0Z" stroke="#323232" stroke-width="2.0" fill="#323232" transform="matrix(1.0,0.0,0.0,1.0,0.0,0.0)"/></marker><marker id="ProcessOnMarker1094" markerUnits="userSpaceOnUse" orient="auto" markerWidth="16.23606797749979" markerHeight="10.550836550532098" viewBox="-1.0 -1.3763819204711736 16.23606797749979 10.550836550532098" refX="-1.0" refY="3.8990363547948754"><path id="ProcessOnPath1095" d="M12.0 3.8990363547948754L0.0 7.798072709589751V0.0Z" stroke="#323232" stroke-width="2.0" fill="#323232" transform="matrix(1.0,0.0,0.0,1.0,0.0,0.0)"/></marker><marker id="ProcessOnMarker1112" markerUnits="userSpaceOnUse" orient="auto" markerWidth="16.23606797749979" markerHeight="10.550836550532098" viewBox="-1.0 -1.3763819204711736 16.23606797749979 10.550836550532098" refX="-1.0" refY="3.8990363547948754"><path id="ProcessOnPath1113" d="M12.0 3.8990363547948754L0.0 7.798072709589751V0.0Z" stroke="#323232" stroke-width="2.0" fill="#323232" transform="matrix(1.0,0.0,0.0,1.0,0.0,0.0)"/></marker><marker id="ProcessOnMarker1139" markerUnits="userSpaceOnUse" orient="auto" markerWidth="16.23606797749979" markerHeight="10.550836550532098" viewBox="-1.0 -1.3763819204711736 16.23606797749979 10.550836550532098" refX="-1.0" refY="3.8990363547948754"><path id="ProcessOnPath1140" d="M12.0 3.8990363547948754L0.0 7.798072709589751V0.0Z" stroke="#323232" stroke-width="2.0" fill="#323232" transform="matrix(1.0,0.0,0.0,1.0,0.0,0.0)"/></marker></defs><g id="ProcessOnG1002"><path id="ProcessOnPath1003" d="M2.0 7.0H1101.0V510.0H2.0V7.0Z" fill="none"/><g id="ProcessOnG1004"><g id="ProcessOnG1005" transform="matrix(1.0,0.0,0.0,1.0,22.0,217.0)" opacity="1.0"><path id="ProcessOnPath1006" d="M0.0 0.0L144.0 0.0L144.0 110.0L0.0 110.0Z" stroke="#007fff" stroke-width="2.0" stroke-dasharray="none" opacity="1.0" fill="#ffffff"/><g id="ProcessOnG1007" transform="matrix(1.0,0.0,0.0,1.0,10.0,6.25)"><text id="ProcessOnText1008" fill="#000000" font-weight="normal" font-style="normal" text-decoration="blink" font-family="微软雅黑" text-anchor="middle" font-size="13" x="62.0" y="13.325"></text><text id="ProcessOnText1009" fill="#000000" font-weight="normal" font-style="normal" text-decoration="blink" font-family="微软雅黑" text-anchor="middle" font-size="13" x="62.0" y="29.575">Binding实例</text><text id="ProcessOnText1010" fill="#000000" font-weight="normal" font-style="normal" text-decoration="blink" font-family="微软雅黑" text-anchor="middle" font-size="13" x="62.0" y="45.825">_proxy</text><text id="ProcessOnText1011" fill="#000000" font-weight="normal" font-style="normal" text-decoration="blink" font-family="微软雅黑" text-anchor="middle" font-size="13" x="62.0" y="62.075">createObserver()</text><text id="ProcessOnText1012" fill="#000000" font-weight="normal" font-style="normal" text-decoration="blink" font-family="微软雅黑" text-anchor="middle" font-size="13" x="62.0" y="78.325">createCompiler()</text><text id="ProcessOnText1013" fill="#000000" font-weight="normal" font-style="normal" text-decoration="blink" font-family="微软雅黑" text-anchor="middle" font-size="13" x="62.0" y="94.575"></text></g></g><g id="ProcessOnG1014" transform="matrix(1.0,0.0,0.0,1.0,277.0,61.5)" opacity="1.0"><path id="ProcessOnPath1015" d="M0.0 0.0L177.0 0.0L177.0 97.0L0.0 97.0Z" stroke="#007fff" stroke-width="2.0" stroke-dasharray="none" opacity="1.0" fill="#ffffff"/><g id="ProcessOnG1016" transform="matrix(1.0,0.0,0.0,1.0,10.0,-4.0)"><text id="ProcessOnText1017" fill="#000000" font-weight="normal" font-style="normal" text-decoration="blink" font-family="微软雅黑" text-anchor="middle" font-size="12" x="78.5" y="12.3"></text><text id="ProcessOnText1018" fill="#000000" font-weight="normal" font-style="normal" text-decoration="blink" font-family="微软雅黑" text-anchor="middle" font-size="12" x="78.5" y="27.3">Observer</text><text id="ProcessOnText1019" fill="#000000" font-weight="normal" font-style="normal" text-decoration="blink" font-family="微软雅黑" text-anchor="middle" font-size="12" x="78.5" y="42.3">数据监听模块</text><text id="ProcessOnText1020" fill="#000000" font-weight="normal" font-style="normal" text-decoration="blink" font-family="微软雅黑" text-anchor="middle" font-size="12" x="78.5" y="57.3">Object.defineProperty()</text><text id="ProcessOnText1021" fill="#000000" font-weight="normal" font-style="normal" text-decoration="blink" font-family="微软雅黑" text-anchor="middle" font-size="12" x="78.5" y="72.3">get:dep.depend()</text><text id="ProcessOnText1022" fill="#000000" font-weight="normal" font-style="normal" text-decoration="blink" font-family="微软雅黑" text-anchor="middle" font-size="12" x="78.5" y="87.3">set:dep.notify()</text><text id="ProcessOnText1023" fill="#000000" font-weight="normal" font-style="normal" text-decoration="blink" font-family="微软雅黑" text-anchor="middle" font-size="12" x="78.5" y="102.3"></text></g></g><g id="ProcessOnG1024" transform="matrix(1.0,0.0,0.0,1.0,721.0,67.0)" opacity="1.0"><path id="ProcessOnPath1025" d="M0.0 0.0L208.0 0.0L208.0 86.0L0.0 86.0Z" stroke="#007fff" stroke-width="2.0" stroke-dasharray="none" opacity="1.0" fill="#ffffff"/><g id="ProcessOnG1026" transform="matrix(1.0,0.0,0.0,1.0,10.0,10.5)"><text id="ProcessOnText1027" fill="#000000" font-weight="normal" font-style="normal" text-decoration="blink" font-family="微软雅黑" text-anchor="middle" font-size="13" x="94.0" y="13.325">Depend</text><text id="ProcessOnText1028" fill="#000000" font-weight="normal" font-style="normal" text-decoration="blink" font-family="微软雅黑" text-anchor="middle" font-size="13" x="94.0" y="29.575">依赖收集模块</text><text id="ProcessOnText1029" fill="#000000" font-weight="normal" font-style="normal" text-decoration="blink" font-family="微软雅黑" text-anchor="middle" font-size="13" x="94.0" y="45.825">depend:target.addDepend()</text><text id="ProcessOnText1030" fill="#000000" font-weight="normal" font-style="normal" text-decoration="blink" font-family="微软雅黑" text-anchor="middle" font-size="13" x="94.0" y="62.075">notify:watcher.update()</text></g></g><g id="ProcessOnG1031" transform="matrix(1.0,0.0,0.0,1.0,298.0,253.0)" opacity="1.0"><path id="ProcessOnPath1032" d="M0.0 0.0L135.0 0.0L135.0 95.0L0.0 95.0Z" stroke="#007fff" stroke-width="2.0" stroke-dasharray="none" opacity="1.0" fill="#ffffff"/><g id="ProcessOnG1033" transform="matrix(1.0,0.0,0.0,1.0,10.0,23.125)"><text id="ProcessOnText1034" fill="#000000" font-weight="normal" font-style="normal" text-decoration="blink" font-family="微软雅黑" text-anchor="middle" font-size="13" x="57.5" y="13.325">Compiler</text><text id="ProcessOnText1035" fill="#000000" font-weight="normal" font-style="normal" text-decoration="blink" font-family="微软雅黑" text-anchor="middle" font-size="13" x="57.5" y="29.575">编译模块</text><text id="ProcessOnText1036" fill="#000000" font-weight="normal" font-style="normal" text-decoration="blink" font-family="微软雅黑" text-anchor="middle" font-size="13" x="57.5" y="45.825">核心方法compile()</text></g></g><g id="ProcessOnG1037" transform="matrix(1.0,0.0,0.0,1.0,773.0,241.0)" opacity="1.0"><path id="ProcessOnPath1038" d="M0.0 0.0L159.0 0.0L159.0 72.0L0.0 72.0Z" stroke="#007fff" stroke-width="2.0" stroke-dasharray="none" opacity="1.0" fill="#ffffff"/><g id="ProcessOnG1039" transform="matrix(1.0,0.0,0.0,1.0,10.0,3.5)"><text id="ProcessOnText1040" fill="#000000" font-weight="normal" font-style="normal" text-decoration="blink" font-family="微软雅黑" text-anchor="middle" font-size="13" x="69.5" y="13.325">Watcher</text><text id="ProcessOnText1041" fill="#000000" font-weight="normal" font-style="normal" text-decoration="blink" font-family="微软雅黑" text-anchor="middle" font-size="13" x="69.5" y="29.575">数据订阅模块</text><text id="ProcessOnText1042" fill="#000000" font-weight="normal" font-style="normal" text-decoration="blink" font-family="微软雅黑" text-anchor="middle" font-size="13" x="69.5" y="45.825">update()</text><text id="ProcessOnText1043" fill="#000000" font-weight="normal" font-style="normal" text-decoration="blink" font-family="微软雅黑" text-anchor="middle" font-size="13" x="69.5" y="62.075">addDepend()</text></g></g><g id="ProcessOnG1044" transform="matrix(1.0,0.0,0.0,1.0,812.5,420.0)" opacity="1.0"><path id="ProcessOnPath1045" d="M0.0 0.0L142.5 0.0L142.5 70.0L0.0 70.0Z" stroke="#007fff" stroke-width="2.0" stroke-dasharray="none" opacity="1.0" fill="#ffffff"/><g id="ProcessOnG1046" transform="matrix(1.0,0.0,0.0,1.0,10.0,18.75)"><text id="ProcessOnText1047" fill="#000000" font-weight="normal" font-style="normal" text-decoration="blink" font-family="微软雅黑" text-anchor="middle" font-size="13" x="61.25" y="13.325">Updater</text><text id="ProcessOnText1048" fill="#000000" font-weight="normal" font-style="normal" text-decoration="blink" font-family="微软雅黑" text-anchor="middle" font-size="13" x="61.25" y="29.575">视图刷新模块</text></g></g><g id="ProcessOnG1049"><path id="ProcessOnPath1050" d="M166.0 234.0L221.5 234.0L221.5 110.0L261.7639320225002 110.0" stroke="#323232" stroke-width="2.0" stroke-dasharray="none" fill="none" marker-end="url(#ProcessOnMarker1051)"/><g id="ProcessOnG1053" transform="matrix(1.0,0.0,0.0,1.0,221.5,171.4930339887499)"><path id="ProcessOnPath1054" d="M0 0H125.0V16.25H0Z" fill="#fff" transform="matrix(1.0,0.0,0.0,1.0,-62.5,0.0)"/><text id="ProcessOnText1055" fill="#000000" font-weight="normal" font-style="normal" text-decoration="blink" font-family="微软雅黑" text-anchor="middle" font-size="13" x="0.0" y="13.325">创建Observer($data)</text></g></g><g id="ProcessOnG1056"><path id="ProcessOnPath1057" d="M454.0 110.0L587.5 110.0L587.5 110.0L705.7639320225002 110.0" stroke="#323232" stroke-width="2.0" stroke-dasharray="none" fill="none" marker-end="url(#ProcessOnMarker1058)"/><g id="ProcessOnG1060" transform="matrix(1.0,0.0,0.0,1.0,579.8819660112501,101.875)"><path id="ProcessOnPath1061" d="M0 0H148.0V16.25H0Z" fill="#fff" transform="matrix(1.0,0.0,0.0,1.0,-74.0,0.0)"/><text id="ProcessOnText1062" fill="#000000" font-weight="normal" font-style="normal" text-decoration="blink" font-family="微软雅黑" text-anchor="middle" font-size="13" x="0.0" y="13.325">调用dep.notify()通知变化</text></g></g><g id="ProcessOnG1063"><path id="ProcessOnPath1064" d="M615.0 277.0L694.0 277.0L694.0 277.0L757.7639320225002 277.0" stroke="#323232" stroke-width="2.0" stroke-dasharray="none" fill="none" marker-end="url(#ProcessOnMarker1065)"/><g id="ProcessOnG1067" transform="matrix(1.0,0.0,0.0,1.0,686.3819660112501,268.875)"><path id="ProcessOnPath1068" d="M0 0H78.0V16.25H0Z" fill="#fff" transform="matrix(1.0,0.0,0.0,1.0,-39.0,0.0)"/><text id="ProcessOnText1069" fill="#000000" font-weight="normal" font-style="normal" text-decoration="blink" font-family="微软雅黑" text-anchor="middle" font-size="13" x="0.0" y="13.325">订阅数据变化</text></g></g><g id="ProcessOnG1070"><path id="ProcessOnPath1071" d="M897.0 153.0L897.0 197.0L897.21875 197.0L897.21875 225.7639320225002" stroke="#323232" stroke-width="2.0" stroke-dasharray="none" fill="none" marker-end="url(#ProcessOnMarker1072)"/><g id="ProcessOnG1074" transform="matrix(1.0,0.0,0.0,1.0,897.0,181.36634101125009)"><path id="ProcessOnPath1075" d="M0 0H52.0V16.25H0Z" fill="#fff" transform="matrix(1.0,0.0,0.0,1.0,-26.0,0.0)"/><text id="ProcessOnText1076" fill="#000000" font-weight="normal" font-style="normal" text-decoration="blink" font-family="微软雅黑" text-anchor="middle" font-size="13" x="0.0" y="13.325">通知变化</text></g></g><g id="ProcessOnG1077"><path id="ProcessOnPath1078" d="M809.8414634146341 241.0L809.8414634146341 197.0L809.0 197.0L809.0 168.2360679774998" stroke="#323232" stroke-width="2.0" stroke-dasharray="none" fill="none" marker-end="url(#ProcessOnMarker1079)"/><g id="ProcessOnG1081" transform="matrix(1.0,0.0,0.0,1.0,809.8414634146341,196.07230228143288)"><path id="ProcessOnPath1082" d="M0 0H65.0V16.25H0Z" fill="#fff" transform="matrix(1.0,0.0,0.0,1.0,-32.5,0.0)"/><text id="ProcessOnText1083" fill="#000000" font-weight="normal" font-style="normal" text-decoration="blink" font-family="微软雅黑" text-anchor="middle" font-size="13" x="0.0" y="13.325">添加订阅者</text></g></g><g id="ProcessOnG1084"><path id="ProcessOnPath1085" d="M615.0 327.0L713.75 327.0L713.75 455.0L797.2639320225002 455.0" stroke="#323232" stroke-width="2.0" stroke-dasharray="none" fill="none" marker-end="url(#ProcessOnMarker1086)"/><g id="ProcessOnG1088" transform="matrix(1.0,0.0,0.0,1.0,713.75,367.1319660112501)"><path id="ProcessOnPath1089" d="M0 0H128.0V32.5H0Z" fill="#fff" transform="matrix(1.0,0.0,0.0,1.0,-64.0,0.0)"/><text id="ProcessOnText1090" fill="#000000" font-weight="normal" font-style="normal" text-decoration="blink" font-family="微软雅黑" text-anchor="middle" font-size="13" x="0.0" y="13.325">调用Updater中的方法</text><text id="ProcessOnText1091" fill="#000000" font-weight="normal" font-style="normal" text-decoration="blink" font-family="微软雅黑" text-anchor="middle" font-size="13" x="0.0" y="29.575">初始化视图</text></g></g><g id="ProcessOnG1092"><path id="ProcessOnPath1093" d="M906.0 313.0L906.0 366.5L905.125 366.5L905.125 404.7639320225002" stroke="#323232" stroke-width="2.0" stroke-dasharray="none" fill="none" marker-end="url(#ProcessOnMarker1094)"/><g id="ProcessOnG1096" transform="matrix(1.0,0.0,0.0,1.0,906.0,343.06946601125014)"><path id="ProcessOnPath1097" d="M0 0H168.0V32.5H0Z" fill="#fff" transform="matrix(1.0,0.0,0.0,1.0,-84.0,0.0)"/><text id="ProcessOnText1098" fill="#000000" font-weight="normal" font-style="normal" text-decoration="blink" font-family="微软雅黑" text-anchor="middle" font-size="13" x="0.0" y="13.325">通过_bind()中创建watcher时</text><text id="ProcessOnText1099" fill="#000000" font-weight="normal" font-style="normal" text-decoration="blink" font-family="微软雅黑" text-anchor="middle" font-size="13" x="0.0" y="29.575">定义的回调方法更新视图</text></g></g><g id="ProcessOnG1100" transform="matrix(1.0,0.0,0.0,1.0,36.0,40.0)" opacity="1.0"><path id="ProcessOnPath1101" d="M0.0 0.0L160.0 0.0L160.0 40.0L0.0 40.0Z" stroke="#323232" stroke-width="0.0" stroke-dasharray="none" opacity="1.0" fill="none"/><g id="ProcessOnG1102" transform="matrix(1.0,0.0,0.0,1.0,0.0,11.875)"><text id="ProcessOnText1103" fill="#000000" font-weight="normal" font-style="normal" text-decoration="blink" font-family="微软雅黑" text-anchor="middle" font-size="13" x="80.0" y="13.325">Binding 结构图</text></g></g><g id="ProcessOnG1104" transform="matrix(1.0,0.0,0.0,1.0,479.0,253.0)" opacity="1.0"><path id="ProcessOnPath1105" d="M0.0 0.0L136.0 0.0L136.0 95.0L0.0 95.0Z" stroke="#007fff" stroke-width="2.0" stroke-dasharray="none" opacity="1.0" fill="#ffffff"/><g id="ProcessOnG1106" transform="matrix(1.0,0.0,0.0,1.0,10.0,23.125)"><text id="ProcessOnText1107" fill="#000000" font-weight="normal" font-style="normal" text-decoration="blink" font-family="微软雅黑" text-anchor="middle" font-size="13" x="58.0" y="13.325">Parser</text><text id="ProcessOnText1108" fill="#000000" font-weight="normal" font-style="normal" text-decoration="blink" font-family="微软雅黑" text-anchor="middle" font-size="13" x="58.0" y="29.575">指令解析模块</text><text id="ProcessOnText1109" fill="#000000" font-weight="normal" font-style="normal" text-decoration="blink" font-family="微软雅黑" text-anchor="middle" font-size="13" x="58.0" y="45.825">核心方法_bind</text></g></g><g id="ProcessOnG1110"><path id="ProcessOnPath1111" d="M433.0 300.5L456.0 300.5L456.0 300.5L463.7639320225002 300.5" stroke="#323232" stroke-width="2.0" stroke-dasharray="none" fill="none" marker-end="url(#ProcessOnMarker1112)"/></g><g id="ProcessOnG1114" transform="matrix(1.0,0.0,0.0,1.0,289.0,366.0)" opacity="1.0"><path id="ProcessOnPath1115" d="M0.0 0.0L160.0 0.0L160.0 40.0L0.0 40.0Z" stroke="#323232" stroke-width="0.0" stroke-dasharray="none" opacity="1.0" fill="none"/><g id="ProcessOnG1116" transform="matrix(1.0,0.0,0.0,1.0,0.0,-4.375)"><text id="ProcessOnText1117" fill="#000000" font-weight="normal" font-style="normal" text-decoration="blink" font-family="微软雅黑" text-anchor="middle" font-size="13" x="80.0" y="13.325">判断节点类型，解析元素或</text><text id="ProcessOnText1118" fill="#000000" font-weight="normal" font-style="normal" text-decoration="blink" font-family="微软雅黑" text-anchor="middle" font-size="13" x="80.0" y="29.575">文本节点，然后判断指令类</text><text id="ProcessOnText1119" fill="#000000" font-weight="normal" font-style="normal" text-decoration="blink" font-family="微软雅黑" text-anchor="middle" font-size="13" x="80.0" y="45.825">型并交由指令解析模块</text></g></g><g id="ProcessOnG1120" transform="matrix(1.0,0.0,0.0,1.0,467.0,192.0)" opacity="1.0"><path id="ProcessOnPath1121" d="M0.0 0.0L148.0 0.0L148.0 40.0L0.0 40.0Z" stroke="#323232" stroke-width="0.0" stroke-dasharray="none" opacity="1.0" fill="none"/><g id="ProcessOnG1122" transform="matrix(1.0,0.0,0.0,1.0,0.0,-4.375)"><text id="ProcessOnText1123" fill="#000000" font-weight="normal" font-style="normal" text-decoration="blink" font-family="微软雅黑" text-anchor="middle" font-size="13" x="74.0" y="13.325">处理各种指令类型，包括</text><text id="ProcessOnText1124" fill="#000000" font-weight="normal" font-style="normal" text-decoration="blink" font-family="微软雅黑" text-anchor="middle" font-size="13" x="74.0" y="29.575">v-text,v-html,v-model,v</text><text id="ProcessOnText1125" fill="#000000" font-weight="normal" font-style="normal" text-decoration="blink" font-family="微软雅黑" text-anchor="middle" font-size="13" x="74.0" y="45.825">-class,v-on 等</text></g></g><g id="ProcessOnG1126" transform="matrix(1.0,0.0,0.0,1.0,620.0,227.0)" opacity="1.0"><path id="ProcessOnPath1127" d="M0.0 0.0L148.0 0.0L148.0 41.0L0.0 41.0Z" stroke="#323232" stroke-width="0.0" stroke-dasharray="none" opacity="1.0" fill="none"/><g id="ProcessOnG1128" transform="matrix(1.0,0.0,0.0,1.0,0.0,12.375)"><text id="ProcessOnText1129" fill="#000000" font-weight="normal" font-style="normal" text-decoration="blink" font-family="微软雅黑" text-anchor="middle" font-size="13" x="74.0" y="13.325">创建数据订阅器Watcher</text></g></g><g id="ProcessOnG1130" transform="matrix(1.0,0.0,0.0,1.0,921.0,257.0)" opacity="1.0"><path id="ProcessOnPath1131" d="M0.0 0.0L160.0 0.0L160.0 40.0L0.0 40.0Z" stroke="#323232" stroke-width="0.0" stroke-dasharray="none" opacity="1.0" fill="none"/><g id="ProcessOnG1132" transform="matrix(1.0,0.0,0.0,1.0,0.0,-12.5)"><text id="ProcessOnText1133" fill="#000000" font-weight="normal" font-style="normal" text-decoration="blink" font-family="微软雅黑" text-anchor="middle" font-size="13" x="80.0" y="13.325">update()方法</text><text id="ProcessOnText1134" fill="#000000" font-weight="normal" font-style="normal" text-decoration="blink" font-family="微软雅黑" text-anchor="middle" font-size="13" x="80.0" y="29.575">将调用回调函数</text><text id="ProcessOnText1135" fill="#000000" font-weight="normal" font-style="normal" text-decoration="blink" font-family="微软雅黑" text-anchor="middle" font-size="13" x="80.0" y="45.825">addDepend()将调用</text><text id="ProcessOnText1136" fill="#000000" font-weight="normal" font-style="normal" text-decoration="blink" font-family="微软雅黑" text-anchor="middle" font-size="13" x="80.0" y="62.075">dep.addWatcher()</text></g></g><g id="ProcessOnG1137"><path id="ProcessOnPath1138" d="M166.0 298.0L228.0 298.0L228.0 298.0L274.7639320225002 298.0" stroke="#323232" stroke-width="2.0" stroke-dasharray="none" fill="none" marker-end="url(#ProcessOnMarker1139)"/></g><g id="ProcessOnG1141" transform="matrix(1.0,0.0,0.0,1.0,145.0,308.0)" opacity="1.0"><path id="ProcessOnPath1142" d="M0.0 0.0L160.0 0.0L160.0 40.0L0.0 40.0Z" stroke="#323232" stroke-width="0.0" stroke-dasharray="none" opacity="1.0" fill="none"/><g id="ProcessOnG1143" transform="matrix(1.0,0.0,0.0,1.0,0.0,3.75)"><text id="ProcessOnText1144" fill="#000000" font-weight="normal" font-style="normal" text-decoration="blink" font-family="微软雅黑" text-anchor="middle" font-size="13" x="80.0" y="13.325">创建Compiler</text><text id="ProcessOnText1145" fill="#000000" font-weight="normal" font-style="normal" text-decoration="blink" font-family="微软雅黑" text-anchor="middle" font-size="13" x="80.0" y="29.575">(options, vm)</text></g></g><g id="ProcessOnG1146" transform="matrix(1.0,0.0,0.0,1.0,748.0,27.0)" opacity="1.0"><path id="ProcessOnPath1147" d="M0.0 0.0L160.0 0.0L160.0 40.0L0.0 40.0Z" stroke="#323232" stroke-width="0.0" stroke-dasharray="none" opacity="1.0" fill="none"/><g id="ProcessOnG1148" transform="matrix(1.0,0.0,0.0,1.0,0.0,11.875)"><text id="ProcessOnText1149" fill="#000000" font-weight="normal" font-style="normal" text-decoration="blink" font-family="微软雅黑" text-anchor="middle" font-size="13" x="80.0" y="13.325">维护Watchers数组</text></g></g></g></g></svg>